<svg width="64" height="49" viewBox="0 0 64 49" fill="none" xmlns="http://www.w3.org/2000/svg">
<path d="M58.0001 48.552C61.2501 48.552 64.0001 45.927 64.0001 42.552V6.552C64.0001 3.302 61.2501 0.552002 58.0001 0.552002H6.00006C2.62506 0.552002 6.10352e-05 3.302 6.10352e-05 6.552V42.552C6.10352e-05 45.927 2.62506 48.552 6.00006 48.552H58.0001ZM14.0001 7.552C17.7501 7.552 21.0001 10.802 21.0001 14.552C21.0001 18.427 17.7501 21.552 14.0001 21.552C10.1251 21.552 7.00006 18.427 7.00006 14.552C7.00006 10.802 10.1251 7.552 14.0001 7.552ZM8.00006 40.552V34.552L16.8751 25.677C17.5001 25.052 18.3751 25.052 19.0001 25.677L26.0001 32.552L42.8751 15.677C43.5001 15.052 44.3751 15.052 45.0001 15.677L56.0001 26.552V40.552H8.00006Z" fill="#2B2B2B"/>
</svg>
